<svg xmlns="http://www.w3.org/2000/svg" viewBox="0 0 48 48" role="img" aria-label="Google Maps">
  <path fill="#1a73e8" d="M24 2C14.7 2 7.2 9.5 7.2 18.8c0 11.8 14.2 26.1 15.3 27.2.8.8 2.2.8 3 0 1.1-1.1 15.3-15.4 15.3-27.2C40.8 9.5 33.3 2 24 2Z"/>
  <path fill="#34a853" d="M24 2v44c1.1-1.1 15.3-15.4 15.3-27.2C39.3 9.5 32.5 2.8 24 2Z" opacity=".96"/>
  <path fill="#fbbc04" d="M7.2 18.8c0 5.6 3.2 12 6.8 17.2L35.8 8.7A16.7 16.7 0 0 0 7.2 18.8Z"/>
  <path fill="#ea4335" d="M24 46c.5-.5 3.5-3.6 6.8-8L14.4 6.2a16.7 16.7 0 0 0-7.2 12.6C7.2 30.6 22.9 44.9 24 46Z" opacity=".96"/>
  <circle cx="24" cy="18.8" r="7.1" fill="#fff"/>
  <circle cx="24" cy="18.8" r="3.5" fill="#4285f4"/>
</svg>
